<svg width="70" height="84" viewBox="0 0 70 84" fill="none" xmlns="http://www.w3.org/2000/svg">
<path d="M35 41.5625C39.6413 41.5625 44.0925 39.3731 47.3744 35.4758C50.6563 31.5786 52.5 26.2928 52.5 20.7812C52.5 15.2697 50.6563 9.98393 47.3744 6.08669C44.0925 2.18945 39.6413 0 35 0C30.3587 0 25.9075 2.18945 22.6256 6.08669C19.3437 9.98393 17.5 15.2697 17.5 20.7812C17.5 26.2928 19.3437 31.5786 22.6256 35.4758C25.9075 39.3731 30.3587 41.5625 35 41.5625ZM46.6667 20.7812C46.6667 24.4556 45.4375 27.9795 43.2496 30.5776C41.0617 33.1758 38.0942 34.6354 35 34.6354C31.9058 34.6354 28.9383 33.1758 26.7504 30.5776C24.5625 27.9795 23.3333 24.4556 23.3333 20.7812C23.3333 17.1069 24.5625 13.583 26.7504 10.9849C28.9383 8.38671 31.9058 6.92708 35 6.92708C38.0942 6.92708 41.0617 8.38671 43.2496 10.9849C45.4375 13.583 46.6667 17.1069 46.6667 20.7812ZM70 76.1979C70 83.125 64.1667 83.125 64.1667 83.125H5.83333C5.83333 83.125 0 83.125 0 76.1979C0 69.2708 5.83333 48.4896 35 48.4896C64.1667 48.4896 70 69.2708 70 76.1979ZM64.1667 76.1702C64.1608 74.4661 63.2683 69.3401 59.3133 64.6435C55.51 60.1271 48.3525 55.4167 35 55.4167C21.6417 55.4167 14.49 60.1271 10.6867 64.6435C6.73167 69.3401 5.845 74.4661 5.83333 76.1702H64.1667Z" fill="black"/>
</svg>
