<svg width="23" height="23" viewBox="0 0 23 23" fill="none" xmlns="http://www.w3.org/2000/svg">
<path fill-rule="evenodd" clip-rule="evenodd" d="M11.4994 0C5.14876 0 0 5.27944 0 11.7918C0 17.0014 3.29431 21.421 7.86453 22.9793C8.44012 23.0884 8.64947 22.7253 8.64947 22.4118C8.64947 22.1324 8.63945 21.3914 8.63444 20.4064C5.43537 21.1196 4.76041 18.8254 4.76041 18.8254C4.23731 17.4634 3.48332 17.1012 3.48332 17.1012C2.43918 16.3701 3.56264 16.3843 3.56264 16.3843C4.71677 16.4681 5.32421 17.5991 5.32421 17.5991C6.34977 19.4011 8.01609 18.8795 8.671 18.5796C8.77509 17.8162 9.07291 17.2977 9.4011 17.0023C6.84781 16.7048 4.16329 15.6932 4.16329 11.175C4.16329 9.88738 4.61121 8.83464 5.34662 8.01016C5.22896 7.71327 4.83354 6.51449 5.45955 4.89033C5.45955 4.89033 6.42496 4.57348 8.62235 6.09999C9.5391 5.83725 10.5231 5.70604 11.5012 5.70211C12.4778 5.70634 13.4621 5.83725 14.38 6.09999C16.5759 4.57348 17.5399 4.89033 17.5399 4.89033C18.1673 6.51449 17.7722 7.71327 17.6543 8.01016C18.3915 8.83464 18.8361 9.88738 18.8361 11.175C18.8361 15.7038 16.1478 16.7015 13.5859 16.9923C13.9982 17.3567 14.3662 18.0777 14.3662 19.178C14.3662 20.7534 14.3523 22.0248 14.3523 22.4115C14.3523 22.7274 14.559 23.0948 15.1428 22.9777C19.7081 21.4162 23 16.9999 23 11.7918C23 5.27944 17.8512 0 11.4994 0V0Z" fill="white"/>
</svg>
