<svg width="24" height="22" viewBox="0 0 24 22" fill="none" xmlns="http://www.w3.org/2000/svg">
<path d="M23.5501 3.35884C22.6852 3.76757 21.7677 4.03572 20.8282 4.15436C21.8178 3.52281 22.5583 2.52902 22.9117 1.3582C21.9816 1.94718 20.9638 2.36192 19.9024 2.58444C19.459 2.07994 18.9231 1.67795 18.3281 1.40339C17.733 1.12882 17.0915 0.987538 16.4431 0.988284C13.8259 0.988284 11.7037 3.25132 11.7037 6.04364C11.7037 6.43948 11.7457 6.82572 11.8267 7.19596C7.88772 6.98508 4.39572 4.97228 2.05812 1.9134C1.63664 2.68494 1.41517 3.5622 1.41642 4.45516C1.4158 5.28749 1.60793 6.10709 1.97575 6.84114C2.34357 7.57519 2.87569 8.20096 3.52482 8.66284C2.77233 8.63735 2.03642 8.42056 1.37832 8.03052C1.37772 8.05164 1.37772 8.07244 1.37772 8.0942C1.37772 10.5428 3.01122 12.586 5.17902 13.051C4.481 13.2526 3.74913 13.2821 3.03882 13.1374C3.64182 15.1454 5.39202 16.6075 7.46592 16.6484C5.7871 18.0538 3.71397 18.816 1.57992 18.8126C1.19742 18.8126 0.820319 18.7889 0.449219 18.7419C2.61622 20.2271 5.13826 21.0154 7.71402 21.0126C16.4314 21.0126 21.1984 13.3099 21.1984 6.6302C21.1984 6.41132 21.1936 6.19276 21.1846 5.97548C22.113 5.26057 22.9141 4.37442 23.5501 3.35884Z" fill="white"/>
</svg>
