<svg width="17" height="18" viewBox="0 0 17 18" fill="none" xmlns="http://www.w3.org/2000/svg">
<path d="M12.7408 7.58129C12.7408 9.94692 10.8422 11.8647 8.50024 11.8647C6.15825 11.8647 4.25968 9.94692 4.25968 7.58129C4.25968 6.91469 4.41481 6.28626 4.6835 5.72389H0V15.7407C0 16.6589 0.74375 17.4102 1.65278 17.4102H15.3472C16.2562 17.4102 17 16.6589 17 15.7407V5.72389H12.3167C12.5953 6.30268 12.7403 6.93773 12.7408 7.58129V7.58129ZM15.3472 0H1.65278C0.74375 0 0 0.75126 0 1.66947V5.0084H5.11535C5.88932 3.97119 7.11521 3.29791 8.5 3.29791C9.88479 3.29791 11.1107 3.97119 11.8847 5.0084H17V1.66947C17 0.75126 16.2562 0 15.3472 0ZM1.35906 4.22518H0.74375V1.81757C0.74373 1.61775 0.802139 1.42238 0.911648 1.25597C1.02116 1.08956 1.17689 0.959528 1.35929 0.882194V4.22518H1.35906ZM2.36725 4.22518H1.78429V0.803252H2.36725V4.22518ZM3.37521 4.22518H2.79225V0.803252H3.37521V4.22518ZM4.38246 1.81757V4.22518H3.80021V0.803252H4.38246V1.81757V1.81757ZM16.1384 3.21086C16.1385 3.34403 16.1125 3.47591 16.0621 3.59895C16.0117 3.722 15.9378 3.83381 15.8445 3.928C15.7513 4.02218 15.6407 4.09691 15.5189 4.1479C15.3971 4.19889 15.2666 4.22515 15.1347 4.22518H13.5034C13.3716 4.22518 13.241 4.19894 13.1192 4.14797C12.9974 4.09699 12.8867 4.02227 12.7935 3.92808C12.7002 3.83389 12.6263 3.72207 12.5758 3.59901C12.5254 3.47595 12.4995 3.34405 12.4995 3.21086V1.81757C12.4995 1.68438 12.5254 1.55249 12.5758 1.42943C12.6263 1.30637 12.7002 1.19455 12.7935 1.10035C12.8867 1.00616 12.9974 0.931444 13.1192 0.880467C13.241 0.82949 13.3716 0.803252 13.5034 0.803252H15.1347C15.2666 0.803252 15.3971 0.829492 15.5189 0.880472C15.6407 0.931452 15.7514 1.00617 15.8446 1.10037C15.9378 1.19456 16.0117 1.30638 16.0622 1.42945C16.1126 1.55251 16.1385 1.68439 16.1384 1.81757V3.21086Z" fill="white"/>
<path d="M8.5009 11.3641C10.5636 11.3641 12.2357 9.67437 12.2357 7.59135C12.2357 5.5081 10.5638 3.81836 8.5009 3.81836C6.43776 3.81836 4.76562 5.5081 4.76562 7.59135C4.76562 9.67413 6.43776 11.3641 8.5009 11.3641V11.3641ZM8.50067 4.58536C10.144 4.58536 11.4766 5.93119 11.4766 7.59135C11.4766 9.25128 10.1442 10.5973 8.50067 10.5973C6.8571 10.5973 5.52472 9.25152 5.52472 7.59135C5.52496 5.93095 6.85733 4.58536 8.50067 4.58536Z" fill="white"/>
</svg>
