<svg width="300" height="300" viewBox="0 0 300 300" fill="none" xmlns="http://www.w3.org/2000/svg">
<path d="M150 299.592C232.843 299.592 300 232.526 300 149.796C300 67.066 232.843 0 150 0C67.1573 0 0 67.066 0 149.796C0 232.526 67.1573 299.592 150 299.592Z" fill="#1EBBE0"/>
<path d="M276.306 230.825C246.389 277.65 206.111 299.592 108.528 244.695C49.75 211.767 40.5 146.44 70.4167 99.6145C100.333 52.7893 148.417 41.4437 209.75 69.3501C321.944 120.558 306.25 183.972 276.306 230.825Z" fill="#188F9B"/>
<path d="M246.389 146.107C246.382 133.633 243.914 121.284 239.128 109.763C234.341 98.242 227.329 87.7753 218.492 78.9606C209.655 70.1459 199.166 63.1557 187.624 58.3891C176.082 53.6226 163.712 51.173 151.222 51.1803V241.172C163.724 241.179 176.105 238.725 187.656 233.95C199.207 229.174 209.702 222.172 218.541 213.342C227.38 204.513 234.389 194.03 239.168 182.493C243.946 170.956 246.4 158.592 246.389 146.107Z" fill="#A09A9A"/>
<path d="M56.0278 146.162C56.0573 171.353 66.1006 195.502 83.9506 213.302C101.801 231.102 125.997 241.096 151.222 241.089V51.0971C138.72 51.0935 126.34 53.5499 114.789 58.3261C103.237 63.1023 92.7418 70.1046 83.9015 78.9329C75.0612 87.7612 68.0493 98.2426 63.2666 109.778C58.484 121.313 56.0242 133.677 56.0278 146.162Z" fill="white"/>
<path d="M151.222 62.8034C151.222 62.1293 150.675 61.5828 150 61.5828C149.325 61.5828 148.778 62.1293 148.778 62.8034V73.7607C148.778 74.4348 149.325 74.9813 150 74.9813C150.675 74.9813 151.222 74.4348 151.222 73.7607V62.8034Z" fill="white"/>
<path d="M150 61.5828C149.681 61.5827 149.374 61.7075 149.145 61.9305C148.917 62.1534 148.785 62.4568 148.778 62.7756V73.8716C148.778 74.1954 148.906 74.5058 149.136 74.7347C149.365 74.9636 149.676 75.0922 150 75.0922C150.324 75.0922 150.635 74.9636 150.864 74.7347C151.093 74.5058 151.222 74.1954 151.222 73.8716V62.7756C151.215 62.4568 151.083 62.1534 150.854 61.9305C150.626 61.7075 150.319 61.5827 150 61.5828V61.5828Z" fill="black"/>
<path d="M68.9722 149.796H57.9999C57.3249 149.796 56.7777 150.343 56.7777 151.017C56.7777 151.691 57.3249 152.237 57.9999 152.237H68.9722C69.6472 152.237 70.1944 151.691 70.1944 151.017C70.1944 150.343 69.6472 149.796 68.9722 149.796Z" fill="white"/>
<path d="M68.9722 149.796H57.9999C57.6758 149.796 57.3649 149.925 57.1357 150.154C56.9065 150.382 56.7777 150.693 56.7777 151.017C56.7777 151.34 56.9065 151.651 57.1357 151.88C57.3649 152.109 57.6758 152.237 57.9999 152.237H68.9722C69.2963 152.237 69.6072 152.109 69.8364 151.88C70.0656 151.651 70.1944 151.34 70.1944 151.017C70.1944 150.693 70.0656 150.382 69.8364 150.154C69.6072 149.925 69.2963 149.796 68.9722 149.796V149.796Z" fill="black"/>
<path d="M150 228.273C150 227.599 149.453 227.052 148.778 227.052C148.103 227.052 147.556 227.599 147.556 228.273V239.23C147.556 239.904 148.103 240.45 148.778 240.45C149.453 240.45 150 239.904 150 239.23V228.273Z" fill="white"/>
<path d="M148.778 227.052C148.454 227.052 148.143 227.181 147.914 227.41C147.684 227.638 147.556 227.949 147.556 228.273V239.23C147.556 239.554 147.684 239.864 147.914 240.093C148.143 240.322 148.454 240.45 148.778 240.45C149.102 240.45 149.413 240.322 149.642 240.093C149.871 239.864 150 239.554 150 239.23V228.273C150 227.949 149.871 227.638 149.642 227.41C149.413 227.181 149.102 227.052 148.778 227.052V227.052Z" fill="black"/>
<path d="M237.139 149.796H226.167C225.492 149.796 224.944 150.343 224.944 151.017C224.944 151.691 225.492 152.237 226.167 152.237H237.139C237.814 152.237 238.361 151.691 238.361 151.017C238.361 150.343 237.814 149.796 237.139 149.796Z" fill="white"/>
<path d="M237.139 149.796H226.028C225.704 149.796 225.393 149.925 225.164 150.154C224.934 150.382 224.806 150.693 224.806 151.017C224.806 151.34 224.934 151.651 225.164 151.88C225.393 152.109 225.704 152.237 226.028 152.237H237.139C237.463 152.237 237.774 152.109 238.003 151.88C238.232 151.651 238.361 151.34 238.361 151.017C238.361 150.693 238.232 150.382 238.003 150.154C237.774 149.925 237.463 149.796 237.139 149.796V149.796Z" fill="black"/>
<path d="M145.833 170.157L128.056 82.5821L157.556 159.422L190.75 188.355L145.833 170.157Z" fill="black"/>
<path d="M147.556 245.998C200.084 245.998 242.667 203.474 242.667 151.017C242.667 98.5597 200.084 56.0349 147.556 56.0349C95.0271 56.0349 52.4445 98.5597 52.4445 151.017C52.4445 203.474 95.0271 245.998 147.556 245.998Z" stroke="black" stroke-width="6" stroke-miterlimit="10"/>
<path d="M145.111 166.856L108.528 194.846" stroke="#999393" stroke-miterlimit="10"/>
</svg>
