<svg width="240" height="73" viewBox="0 0 240 73" fill="none" xmlns="http://www.w3.org/2000/svg">
<path d="M33.85 67.7C52.5448 67.7 67.7 52.5448 67.7 33.85C67.7 15.1552 52.5448 0 33.85 0C15.1552 0 0 15.1552 0 33.85C0 52.5448 15.1552 67.7 33.85 67.7Z" fill="#1EBBE0"/>
<path d="M62.3591 52.1598C55.6091 62.7398 46.5191 67.6998 24.4891 55.2998C11.1891 47.8598 9.18915 33.0898 15.8891 22.4998C22.5891 11.9098 33.4991 9.3598 47.3391 15.6598C72.6591 27.2398 69.1091 41.5698 62.3591 52.1598Z" fill="#188F9B"/>
<path d="M34.4004 11.73V54.34C37.1975 54.3413 39.9676 53.7917 42.5523 52.7224C45.137 51.6532 47.4859 50.0854 49.4647 48.1084C51.4435 46.1315 53.0136 43.7841 54.0852 41.2004C55.1568 38.6166 55.7091 35.8471 55.7104 33.05C55.7117 30.2507 55.1615 27.4785 54.0911 24.8919C53.0208 22.3053 51.4513 19.9549 49.4724 17.9751C47.4934 15.9952 45.1438 14.4246 42.5577 13.3531C39.9716 12.2815 37.1997 11.73 34.4004 11.73Z" fill="#A09A9A"/>
<path d="M12.4609 33.0302C12.4662 38.6776 14.7141 44.0917 18.7102 48.0822C22.7063 52.0727 28.1236 54.3129 33.7709 54.3102V11.7202C30.9729 11.7189 28.2021 12.2689 25.6167 13.3387C23.0313 14.4086 20.682 15.9773 18.7031 17.9553C16.7242 19.9333 15.1543 22.2819 14.0833 24.8667C13.0122 27.4516 12.4609 30.2222 12.4609 33.0202V33.0302Z" fill="white"/>
<path d="M33.8496 13.9199C34.0096 13.9199 34.1296 14.0399 34.3996 14.1899V16.6699C34.1296 16.8199 34.0096 16.9399 33.8496 16.9399C33.6996 16.9399 33.5796 16.8199 33.7696 16.6699V14.1899C33.5796 14.0399 33.6996 13.9199 33.8496 13.9199Z" fill="white"/>
<path d="M33.8496 13.9199C33.6996 13.9199 33.5796 14.0399 33.7696 14.1899V16.6899C33.5796 16.8499 33.6996 16.9699 33.8496 16.9699C33.9996 16.9699 34.1296 16.8499 34.3996 16.6899V14.1899C34.1296 14.0399 33.9996 13.9199 33.8496 13.9199Z" fill="black"/>
<path d="M13.0903 33.9399H15.5703C15.7203 33.8499 15.8403 33.9399 15.8403 34.1299C15.8403 34.2799 15.7203 34.3999 15.5703 34.5699H13.0903C12.9403 34.3999 12.8203 34.2799 12.8203 34.1299C12.8203 33.9699 12.9403 33.8499 13.0903 33.9399Z" fill="white"/>
<path d="M15.5703 33.9399H13.0903C12.9403 33.8499 12.8203 33.9399 12.8203 34.1299C12.8203 34.3199 12.9403 34.3999 13.0903 34.5699H15.5703C15.7203 34.3999 15.8403 34.2799 15.8403 34.1299C15.8403 33.9799 15.7203 33.8499 15.5703 33.9399Z" fill="black"/>
<path d="M33.5804 51.3101C33.7304 51.3101 33.8504 51.4301 33.7704 51.5901V54.0601C33.7872 54.0907 33.7953 54.1255 33.7936 54.1604C33.792 54.1954 33.7807 54.2292 33.7611 54.2582C33.7414 54.2872 33.7141 54.3101 33.6823 54.3246C33.6504 54.339 33.6151 54.3444 33.5804 54.3401C33.4304 54.3401 33.3004 54.2101 33.1504 54.0601V51.5901C33.3004 51.4301 33.4304 51.3101 33.5804 51.3101Z" fill="white"/>
<path d="M33.5804 51.3101C33.4304 51.3101 33.3004 51.4301 33.1504 51.5901V54.0601C33.3004 54.2101 33.4304 54.3401 33.5804 54.3401C33.6151 54.3444 33.6504 54.339 33.6823 54.3246C33.7141 54.3101 33.7414 54.2872 33.7611 54.2582C33.7807 54.2292 33.792 54.1954 33.7936 54.1604C33.7953 54.1255 33.7872 54.0907 33.7704 54.0601V51.5901C33.8504 51.4301 33.7704 51.3101 33.5804 51.3101Z" fill="black"/>
<path d="M51.0395 33.9399H53.5195C53.6695 33.8499 53.7895 33.9399 53.7895 34.1299C53.7895 34.2799 53.6695 34.3999 53.5195 34.5699H51.0395C50.8895 34.3999 50.7695 34.2799 50.7695 34.1299C50.7695 33.9699 50.8895 33.8499 51.0395 33.9399Z" fill="white"/>
<path d="M53.5202 33.9399H51.0102C50.8602 33.8499 50.7402 33.9399 50.7402 34.1299C50.7402 34.3199 50.8602 34.3999 51.0102 34.5699H53.5202C53.6702 34.3999 53.7902 34.2799 53.7902 34.1299C53.7902 33.9799 53.6702 33.8499 53.5202 33.9399Z" fill="black"/>
<path d="M32.9104 38.4502L28.9004 18.6602L35.5604 36.0302L43.0504 42.5602L32.9104 38.4502Z" fill="black"/>
<path d="M33.2998 55.5899C45.1519 55.5899 54.7598 45.982 54.7598 34.1299C54.7598 22.2779 45.1519 12.6699 33.2998 12.6699C21.4478 12.6699 11.8398 22.2779 11.8398 34.1299C11.8398 45.982 21.4478 55.5899 33.2998 55.5899Z" stroke="black" stroke-width="6" stroke-miterlimit="10"/>
<path d="M32.7502 37.71L24.4902 44.03" stroke="#999393" stroke-miterlimit="10"/>
<path d="M72.8431 46.9502V20.0847H89.0568V22.9707H76.0963V32.0483H88.2173V34.9342H76.0963V44.0643H89.2667V46.9502H72.8431ZM106.044 32.0745V34.9604H94.2908V32.0745H106.044ZM111.911 46.9502V20.0847H120.989C123.097 20.0847 124.819 20.4652 126.157 21.226C127.504 21.9781 128.501 22.9969 129.148 24.2825C129.796 25.568 130.119 27.0022 130.119 28.5851C130.119 30.168 129.796 31.6066 129.148 32.9009C128.51 34.1952 127.522 35.2272 126.184 35.9968C124.846 36.7576 123.132 37.138 121.042 37.138H114.535V34.2521H120.937C122.38 34.2521 123.538 34.0028 124.413 33.5043C125.287 33.0059 125.921 32.3325 126.315 31.4842C126.717 30.6272 126.918 29.6608 126.918 28.5851C126.918 27.5095 126.717 26.5475 126.315 25.6992C125.921 24.8509 125.283 24.1863 124.4 23.7053C123.516 23.2155 122.345 22.9707 120.884 22.9707H115.165V46.9502H111.911ZM158.027 33.5175C158.027 36.3509 157.516 38.7996 156.493 40.8635C155.469 42.9274 154.066 44.519 152.282 45.6384C150.498 46.7578 148.46 47.3175 146.169 47.3175C143.878 47.3175 141.84 46.7578 140.056 45.6384C138.272 44.519 136.868 42.9274 135.845 40.8635C134.822 38.7996 134.31 36.3509 134.31 33.5175C134.31 30.684 134.822 28.2353 135.845 26.1714C136.868 24.1076 138.272 22.5159 140.056 21.3965C141.84 20.2771 143.878 19.7174 146.169 19.7174C148.46 19.7174 150.498 20.2771 152.282 21.3965C154.066 22.5159 155.469 24.1076 156.493 26.1714C157.516 28.2353 158.027 30.684 158.027 33.5175ZM154.879 33.5175C154.879 31.1912 154.49 29.2279 153.712 27.6275C152.942 26.0271 151.897 24.8159 150.576 23.9939C149.265 23.1718 147.795 22.7608 146.169 22.7608C144.542 22.7608 143.069 23.1718 141.748 23.9939C140.436 24.8159 139.391 26.0271 138.613 27.6275C137.843 29.2279 137.459 31.1912 137.459 33.5175C137.459 35.8437 137.843 37.807 138.613 39.4074C139.391 41.0078 140.436 42.219 141.748 43.0411C143.069 43.8631 144.542 44.2741 146.169 44.2741C147.795 44.2741 149.265 43.8631 150.576 43.0411C151.897 42.219 152.942 41.0078 153.712 39.4074C154.49 37.807 154.879 35.8437 154.879 33.5175ZM184.801 20.0847V46.9502H181.653L167.013 25.8566H166.751V46.9502H163.498V20.0847H166.646L181.338 41.2308H181.6V20.0847H184.801ZM189.842 22.9707V20.0847H209.991V22.9707H201.543V46.9502H198.29V22.9707H189.842ZM236.561 33.5175C236.561 36.3509 236.049 38.7996 235.026 40.8635C234.003 42.9274 232.599 44.519 230.815 45.6384C229.031 46.7578 226.994 47.3175 224.702 47.3175C222.411 47.3175 220.374 46.7578 218.589 45.6384C216.805 44.519 215.402 42.9274 214.379 40.8635C213.355 38.7996 212.844 36.3509 212.844 33.5175C212.844 30.684 213.355 28.2353 214.379 26.1714C215.402 24.1076 216.805 22.5159 218.589 21.3965C220.374 20.2771 222.411 19.7174 224.702 19.7174C226.994 19.7174 229.031 20.2771 230.815 21.3965C232.599 22.5159 234.003 24.1076 235.026 26.1714C236.049 28.2353 236.561 30.684 236.561 33.5175ZM233.413 33.5175C233.413 31.1912 233.024 29.2279 232.245 27.6275C231.476 26.0271 230.431 24.8159 229.11 23.9939C227.798 23.1718 226.329 22.7608 224.702 22.7608C223.076 22.7608 221.602 23.1718 220.282 23.9939C218.97 24.8159 217.925 26.0271 217.147 27.6275C216.377 29.2279 215.992 31.1912 215.992 33.5175C215.992 35.8437 216.377 37.807 217.147 39.4074C217.925 41.0078 218.97 42.219 220.282 43.0411C221.602 43.8631 223.076 44.2741 224.702 44.2741C226.329 44.2741 227.798 43.8631 229.11 43.0411C230.431 42.219 231.476 41.0078 232.245 39.4074C233.024 37.807 233.413 35.8437 233.413 33.5175Z" fill="#F9F9F9"/>
<path d="M163.154 59.6944C163.154 61.3093 162.862 62.7048 162.279 63.8811C161.696 65.0574 160.896 65.9645 159.879 66.6025C158.863 67.2404 157.701 67.5594 156.395 67.5594C155.09 67.5594 153.928 67.2404 152.911 66.6025C151.895 65.9645 151.095 65.0574 150.512 63.8811C149.928 62.7048 149.637 61.3093 149.637 59.6944C149.637 58.0795 149.928 56.684 150.512 55.5077C151.095 54.3314 151.895 53.4243 152.911 52.7863C153.928 52.1484 155.09 51.8294 156.395 51.8294C157.701 51.8294 158.863 52.1484 159.879 52.7863C160.896 53.4243 161.696 54.3314 162.279 55.5077C162.862 56.684 163.154 58.0795 163.154 59.6944ZM161.36 59.6944C161.36 58.3686 161.138 57.2497 160.694 56.3376C160.256 55.4255 159.66 54.7352 158.907 54.2666C158.16 53.7981 157.322 53.5639 156.395 53.5639C155.468 53.5639 154.629 53.7981 153.876 54.2666C153.128 54.7352 152.533 55.4255 152.089 56.3376C151.65 57.2497 151.431 58.3686 151.431 59.6944C151.431 61.0202 151.65 62.1391 152.089 63.0512C152.533 63.9634 153.128 64.6537 153.876 65.1222C154.629 65.5907 155.468 65.8249 156.395 65.8249C157.322 65.8249 158.16 65.5907 158.907 65.1222C159.66 64.6537 160.256 63.9634 160.694 63.0512C161.138 62.1391 161.36 61.0202 161.36 59.6944ZM178.413 52.0387V67.3501H176.619L168.275 55.3283H168.126V67.3501H166.272V52.0387H168.066L176.439 64.0904H176.589V52.0387H178.413ZM182.123 67.3501V52.0387H183.977V65.7053H191.095V67.3501H182.123ZM195.82 52.0387V67.3501H193.965V52.0387H195.82ZM211.679 52.0387V67.3501H209.884L201.541 55.3283H201.391V67.3501H199.537V52.0387H201.331L209.705 64.0904H209.854V52.0387H211.679ZM215.389 67.3501V52.0387H224.629V53.6835H217.243V58.8571H224.151V60.5018H217.243V65.7053H224.749V67.3501H215.389Z" fill="white"/>
</svg>
